<?xml version="1.0" encoding="utf-8"?>
<!-- Generator: Adobe Illustrator 23.0.2, SVG Export Plug-In . SVG Version: 6.00 Build 0)  -->
<svg version="1.1" id="レイヤー_1" xmlns="http://www.w3.org/2000/svg" xmlns:xlink="http://www.w3.org/1999/xlink" x="0px"
	 y="0px" viewBox="0 0 400 400" style="enable-background:new 0 0 400 400;" xml:space="preserve">
<style type="text/css">
	.st0{fill:#333333;}
</style>
<path class="st0" d="M372.1,30.1c0.1-0.2,0.1-0.4,0.1-0.6c0-0.3,0-0.6-0.1-0.8l-0.3-13.8c0-2-1.6-3.5-3.5-3.5H238.9
	c-1.9,0-3.5,1.6-3.5,3.5l-2,84.5l-31.8-9.7l-9.2-15.1c-3.6-6-7-8-13.5-7.8c-3.5,0.1-19.8,0-20,0h-0.8c-4.9,0-16.7,0.1-19.7,0
	c-6.5-0.2-9.9,1.8-13.4,7.8l-9.2,15.2l-47,14.4l-0.6,0.2c-0.1,0.1-0.2,0.1-0.3,0.2l-0.4,0.2c-0.1,0-0.2,0.1-0.3,0.2l-0.3,0.3
	l-0.2,0.2l-0.2,0.3c-0.5,0.8-13.3,20.9-18.8,46.4C42.3,177.1,21.9,371.4,21,379.7c-0.2,2,1.1,3.9,3.1,4.3
	c17.5,3.8,36.5,5.9,36.6,5.9c2.1,0.3,4.1-1.3,4.4-3.6c0.5-3.9,11.3-96.6,14.5-113.3c1.6-8.3,5.1-21,8.2-31.7
	c0.3,5.5,0.5,10.4,0.5,12.5c0,4.1-11.7,73.7-19,116.6c-0.4,2,0.9,4,2.9,4.5c0.4,0.1,41.7,10.8,46.7,12.6c1.1,0.4,2.4,0.6,4,0.6
	c7.5,0,18.9-4.3,26.8-13.9h19c7.3,9.7,17.9,14,25.5,14c1.6,0,3-0.2,4.2-0.6c4.9-1.8,46.3-12.5,46.7-12.6c2-0.5,3.3-2.5,2.9-4.5
	c-1-5.7-2-12-3.1-18.4l3.9,1.9c2.1,17.4,3.7,31.1,3.9,32.6c0.2,2,1.9,3.5,3.9,3.5c0.2,0,0.3,0,0.5-0.1c0.2,0,19.3-2.2,36.7-5.9
	c2-0.4,3.3-2.3,3.1-4.3c-0.4-3.7-4.7-45.3-9.9-92.2l16.7-143.2l23.3,200c0.2,1.4,1.1,2.6,2.4,3l24,8c0.4,0.1,0.7,0.2,1.1,0.2h0.2
	l0.1,0.1c0.8,0,1.6-0.4,2.2-0.9l20.7-9.8c1.2-0.6,2-1.9,2-3.3L372.1,30.1z M344.7,84.5c0-1.2-1-2.1-2.1-2c-1.2,0-2.1,1-2,2.1
	l12.1,264.6l-20.3-6.7l-26.6-227.3V106c0.2-0.1,0.4-0.3,0.6-0.5l9.4-13.3c3-4.3,4.7-9.7,4.7-15.2V31.5h46.3l7.5,308.9l-17.6,8.3
	L344.7,84.5z M229.5,258.3c-0.3-2.4-0.5-3.9-0.5-4.4c0-2.2,0.2-7.8,0.5-14.3c0.1,0.5,0.3,1,0.4,1.5L229.5,258.3z M229.1,294.5
	l-24.9,4c-3.3,0.4-6.8-0.5-8.5-9.7l-0.9-5.7l31.8-4.3C227.3,283.7,228.2,289,229.1,294.5z M234.3,289l0.7-29.4
	c1.3,5,2.4,9.7,3.2,13.5c1.9,9.8,6.3,45.5,9.8,74.2l-4.3-2C240.5,326.3,237.1,305.8,234.3,289z M224.8,215c-0.4,5-1.9,32.5-1.9,38.6
	c0,1.6,1.2,9.7,3,21.1l-33.6,4.5c-0.6,0.1-1.1,0.4-1.4,0.8c-0.3,0.4-0.5,1-0.4,1.5l1.2,7.8c1.6,8.9,5.4,13.2,11.5,13.2
	c0.6,0,1.1-0.1,1.5,0l25.1-4c4.8,28.9,10.5,62.4,11.9,70.9c-8.2,2.1-40.7,10.6-45.4,12.3c-4.3,1.5-20.2-2.4-26.9-18.3
	c-6.9-16.2-15.7-43.3-13.2-90.3c0.8-15.8,4.5-53.2,4.7-55.7c1.1-4.9,18.9-83.3,20.8-93.8c0.4-2.5,5.4-41.6,1.3-44.5
	c-1-0.6-2.2-0.4-2.9,0.5c-0.5,0.8-0.5,1.8,0.1,2.5c0.3,0.8,0.4,2.9,0.3,5.8h-44c0,0,0,0,0,0c0-2.8,0.1-4.9,0.3-5.7
	c0.6-0.7,0.6-1.7,0.1-2.5c-0.7-0.9-2-1.2-2.9-0.5c-4.2,3,0.8,42,1.3,44.5c2,10.6,20.1,90.6,20.9,94c0.1,0.4,0.2,0.7,0.5,0.9
	c-0.3,2.9-0.9,9.3-1.6,17l-43.7-105.2l9.3-9.3c0.4-0.4,0.6-1,0.6-1.6c-0.1-0.6-0.3-1.1-0.8-1.5l-10.8-8.7l10.2-15
	c0.1-0.1,0.2-0.2,0.2-0.4l9.8-16.1c2.6-4.4,4-5,8.1-4.9c3.7,0.1,19.5,0,20.2,0c0.4,0,0.7-0.1,1-0.3c2.8,0,16.3,0.1,19.7,0
	c4-0.1,5.5,0.5,8.1,4.9l10,16.3c0,0.1,0.1,0.2,0.1,0.3l10.2,15l-10.8,8.7c-0.5,0.4-0.8,0.9-0.8,1.5c0,0.6,0.2,1.2,0.6,1.6l9.3,9.3
	l-45,108.3c-0.4,1.1,0.1,2.3,1.1,2.7c0.3,0.1,0.5,0.2,0.8,0.2c0.8,0,1.5-0.5,1.7-1.5l23.4-56.2l21.6-1.3c0.9,0,1.7-0.6,1.9-1.5
	l2.6-10c0.2-0.6,0-1.3-0.4-1.8c-0.4-0.6-1.1-0.8-1.7-0.8l-18,0.9l16.2-38.9c0.4-0.7,0.2-1.6-0.4-2.2l-8.6-8.6l10.5-8.4
	c0.8-0.7,1-1.9,0.4-2.8l-8.1-11.9l41,12.6c-2.1,6.1-8.4,24.4-9.7,31.4C233.4,149,225.2,210.2,224.8,215z M165.6,365.2
	c0.3,0.7,0.6,1.4,0.9,2H152c0.2-0.5,0.5-0.9,0.7-1.4c3.8-7.8,5.8-13.4,6.9-17.2C161.6,355.1,163.7,360.6,165.6,365.2z M158.5,209.3
	c-4.7-20.7-17.5-77.6-19.1-86.3c-1.3-7.3-2.5-21.3-2.9-30.9h43.9c-0.3,9.6-1.5,23.5-2.8,30.8C176,131.5,163.2,188.6,158.5,209.3z
	 M191.9,173.4l17.2-0.9l-1.5,5.8l-18.2,1.1L191.9,173.4z M270.2,152.1c-1.4-6.5-3.3-12.7-5.3-18.3l2.2-49.3c0-1.1-0.9-2-2-2.1
	c-1.1,0-2,0.9-2.1,2l-1.8,40.2c-4.9-11.1-9.5-18.4-9.8-18.9c-0.7-1.1-2-1.8-3.3-1.8l-9.2-2.8l1.7-69.6h61v82l-17.3,149.3
	C278.7,213.1,272.8,163.9,270.2,152.1z M305.8,31.5h10.5v45.4c0,4.7-1.4,9.3-4,12.9l-6.5,9.2V31.5z M305.8,27.3V17h60.6l0.3,10.3
	H305.8z M301.6,27.3h-60.9l0.2-10.3h60.7V27.3z M90.5,278.4l32.3,4.4l-0.9,5.7c-1.7,9.3-5.3,10.1-8.4,9.8l-25.6-4.1
	C88.8,288.7,89.7,283.3,90.5,278.4z M78,141.5c1.5,8.1,9.8,69.6,10.1,74.1c0,0.6,0.1,1.5,0.2,2.7c-0.2,0.9-11.3,36.3-14.7,53.6
	c-3.1,16.1-12.6,97.5-14.3,112c-5.1-0.6-18.9-2.4-32.2-5.2c2.1-20.4,21.3-201.8,26.4-225.1c3.9-18,11.8-33.6,15.7-40.6
	C71.8,120.5,77,135.5,78,141.5z M87.3,298.2l25.7,4.2c0.5,0.1,1,0.1,1.5,0.1c6.1,0,9.8-4.3,11.4-13.5l1.2-7.8
	c0.1-0.5-0.1-1.1-0.4-1.5c-0.4-0.4-0.9-0.7-1.4-0.8l-34.2-4.5c1.7-11,2.9-18.8,2.9-20.4c0-5.9-1.5-33.6-1.9-38.6
	c-0.4-4.9-8.5-66-10.1-74.6c-1.2-7-7.5-25.2-9.7-31.4l41-12.5l-8,11.6c-0.6,0.9-0.4,2.1,0.4,2.8l10.5,8.4l-8.6,8.6
	c-0.5,0.6-0.7,1.4-0.4,2.2l45.3,109.1c0.3,0.8,1.1,1.3,1.9,1.3v0c0.1,0,0.1,0,0.2,0c-1,11.5-2.1,24.3-2.5,32.1
	c-1.5,29.6,1.3,51.4,5.3,67.7c-0.5,0.4-0.7,1-0.7,1.6c0,0.1-0.3,6.5-7.7,21.7c-0.6,1.1-1.2,2.2-1.8,3.3c-1.5,0.2-2.6,1.5-2.6,3
	c0,0.2,0,0.3,0,0.5c-8.4,10.1-20.4,12.6-24,11.3c-4.7-1.7-37.2-10.2-45.4-12.3C76.7,361.3,82.5,327.3,87.3,298.2z M244.1,271.8
	c-3.4-17.4-14.6-53.2-14.7-53.6c-0.1-0.3-0.4-0.6-0.6-0.9c0.1-0.9,0.1-1.6,0.1-2c0.4-4.5,8.6-66,10.1-74.1c1.2-6.2,6.6-22.1,9-29.3
	c3.7,6.5,12.1,22.6,16.2,41.4c5,23.4,24.2,204.8,26.4,225.1c-13.3,2.8-27.1,4.6-32.2,5.2C256.8,369.3,247.2,287.9,244.1,271.8z
	 M354.8,354C354.8,354,354.8,354,354.8,354C354.8,354,354.8,354,354.8,354z M166.9,253.7c-4,0-7.3,3.3-7.3,7.3s3.3,7.3,7.3,7.3
	s7.3-3.3,7.3-7.3S170.9,253.7,166.9,253.7z M166.9,264.3c-1.8,0-3.2-1.5-3.2-3.2c0-1.8,1.5-3.2,3.2-3.2c1.8,0,3.2,1.4,3.2,3.2
	S168.6,264.3,166.9,264.3z"/>
</svg>
