<?xml version="1.0" encoding="utf-8"?>
<!-- Generator: Adobe Illustrator 23.0.2, SVG Export Plug-In . SVG Version: 6.00 Build 0)  -->
<svg version="1.1" id="レイヤー_1" xmlns="http://www.w3.org/2000/svg" xmlns:xlink="http://www.w3.org/1999/xlink" x="0px"
	 y="0px" viewBox="0 0 400 400" style="enable-background:new 0 0 400 400;" xml:space="preserve">
<style type="text/css">
	.st0{fill:#333333;}
</style>
<path class="st0" d="M380.8,36c0.1-0.1,0.1-0.3,0.1-0.5c0-0.3-0.1-0.5-0.1-0.7l-0.3-11.1c0-1.8-1.4-3.2-3.2-3.2h-104
	c-1.7,0-3.2,1.4-3.2,3.2l-3,123l-15.5-4.7l-7.3-12c-2.9-4.9-5.8-6.7-11.2-6.5c-2.9,0.1-16,0-16.1,0h-0.6c-4,0-13.4,0.1-15.8,0
	c-5.3-0.1-8.2,1.6-11.1,6.5l-7.3,12l-17.6,5.4c0.9-11.8,1.5-20.7,1.5-22.1c0-2.8-2.3-6-7.4-13c-5.2-7.3-12.5-17.2-13.1-23.8
	c-3.6-37.9,2.5-54.6,2.6-54.8c0.6-1.5-0.1-3.3-1.6-4l-25.8-12.4c-0.6-0.4-1.3-0.7-2-0.8h-58l-0.9,0.3L33,30.2
	c-1.4,0.7-2.1,2.5-1.5,4c0,0.1,6.1,16.4,2.5,54.3c-0.7,6.6-7.9,16.5-13.1,23.8c-5.1,7-7.4,10.3-7.4,13c0,4.6,6.5,84.7,7.2,93.8
	c0.1,0.9,0.6,1.8,1.3,2.3c7.7,5.5,33,23.7,37.1,25.2c0.3,0.1,0.6,0.2,0.9,0.2h0.3c4.2,0,14.5-8.3,30.5-24.7
	c6.9,7.9,19.7,21.1,25.1,23.9c1.2,0.6,2.2,0.9,3.1,0.9c0.3,0,0.5-0.1,0.7-0.1c0.1,0,0.2,0,0.3-0.1c-6.2,52.8-13.8,124.2-14.2,128.7
	c-0.2,1.8,1,3.5,2.8,3.9c14.1,3,29.3,4.7,29.4,4.7h0.5c1.9,0,3.4-1.3,3.6-3.2c0.3-3.1,9-77.6,11.6-91c1.2-6.1,3.6-15.1,5.9-23.1
	c0.2,3.4,0.3,6.3,0.3,7.6c-0.1,3.3-9.4,59.2-15.3,93.6c-0.4,1.8,0.8,3.6,2.6,4.1c3.3,0.9,33.8,8.8,37.5,10.1
	c5.2,1.8,17.3-1.3,25.1-10.7h14.8c5.9,7.7,14.6,11.2,20.7,11.2c1.3,0,2.5-0.1,3.5-0.5c3.8-1.3,34.7-9.4,37.5-10.1
	c1.8-0.5,2.9-2.3,2.6-4.1c-3.8-22.2-9.1-53.4-12.3-73.6l4.7,2.2c3.3,22.6,10.2,81.6,10.5,84.4c0.2,1.8,1.8,3.2,3.6,3.2l0.7-0.3
	c0.2,0,15.3-1.7,29.5-4.7c1.8-0.4,3-2.1,2.8-3.9c-0.5-4.7-8.9-84.8-15.3-138l12.3-105.9l18.3,157.2c0.1,1.2,1,2.3,2.2,2.7l19.3,6.4
	c0.3,0.1,0.7,0.2,1,0.2h0.1h0l0.1-0.1c0.8,0,1.5-0.3,2-0.8l16.6-7.8c1.2-0.5,1.9-1.7,1.9-3L380.8,36z M272.8,306.7l-19.4,3.1
	c-1.8,0.1-4.9,0.5-6.4-7.5l-0.7-4.2l24.6-3.2C271.5,298.5,272.1,302.5,272.8,306.7z M270.2,290.8l-26.5,3.5
	c-0.6,0.1-1.1,0.4-1.4,0.8c-0.3,0.4-0.5,1-0.4,1.5l1,6.3c1.4,7.2,4.6,10.9,9.7,10.9h1.3l19.5-3.1c3.7,22.3,8,48,9.5,56.3
	c-7.2,1.9-32.5,8.5-36.2,9.8c-2.8,1-12.2-1.1-18.2-9.4c-0.1-0.9-0.7-1.7-1.4-2.2c-0.5-0.9-1-1.9-1.5-2.9
	c-5.4-13-12.5-34.7-10.5-72.4c0.7-12.7,3.6-42.5,3.8-44.7c0.9-4.2,15.2-67,16.7-75.4c0-0.3,4.7-33.4,0.9-36.1
	c-1-0.6-2.2-0.4-2.9,0.5c-0.5,0.7-0.5,1.7,0,2.4c0.2,0.6,0.2,2.1,0.2,4h-34.5c0-1.9,0.1-3.3,0.2-3.9c0.5-0.7,0.5-1.7,0-2.4
	c-0.7-0.9-2-1.2-2.9-0.5c-3.8,2.6,0.8,35.8,0.9,36.1c1.6,8.5,16.2,72.8,16.8,75.5c0.1,0.3,0.1,0.5,0.3,0.7
	c-0.2,2.1-0.6,6.5-1.1,11.8l-34.4-82.7l7.3-7.3c0.4-0.4,0.6-1,0.6-1.6c-0.1-0.6-0.3-1.1-0.8-1.5l-8.4-6.7l7.6-11.1
	c0.2-0.2,0.4-0.3,0.6-0.6l8-13.2c2-3.4,3.1-3.8,6.2-3.7c2.9,0.1,15.7,0,16.2,0c0.3,0,0.6-0.1,0.8-0.2c2.6,0,12.9,0.1,15.6,0
	c3.1,0,4.2,0.4,6.2,3.8l8,13.2c0.2,0.2,0.4,0.5,0.6,0.6l7.6,11.1l-8.4,6.7c-0.5,0.4-0.8,0.9-0.8,1.5c0,0.6,0.2,1.2,0.6,1.6l7.3,7.3
	l-36.1,86.8c-0.4,1.1,0.1,2.3,1.1,2.7c0.3,0.1,0.5,0.2,0.8,0.2c0.8,0,1.5-0.4,1.8-1.4l18.8-45.2l16.8-0.9c0.9,0,1.7-0.6,1.9-1.5
	l2.1-8c0.2-0.6,0-1.3-0.4-1.8c-0.4-0.6-1.1-0.8-1.7-0.8l-13.6,0.7l12.7-30.5c0.4-0.7,0.2-1.6-0.4-2.2l-6.6-6.6l8.1-6.5
	c0.8-0.7,1-1.9,0.4-2.8l-5.7-8.4l31.2,9.6c-1.9,5.3-6.7,19.4-7.7,24.9c-1.2,6.9-7.8,56-8.1,59.9c-0.3,4-1.5,26.3-1.5,31.1
	C267.9,275.6,268.8,281.9,270.2,290.8z M96.2,129.7c-1.9,0-3.4,1.5-3.4,3.4c0,1.9,1.5,3.4,3.4,3.4c1.9,0,3.4-1.5,3.4-3.4
	C99.6,131.2,98.1,129.7,96.2,129.7z M96.2,146.7c-1.9,0-3.4,1.5-3.4,3.4c0,1.9,1.5,3.4,3.4,3.4c1.9,0,3.4-1.5,3.4-3.4
	C99.6,148.2,98.1,146.7,96.2,146.7z M96.2,163.7c-1.9,0-3.4,1.5-3.4,3.4c0,1.9,1.5,3.4,3.4,3.4c1.9,0,3.4-1.5,3.4-3.4
	C99.6,165.2,98.1,163.7,96.2,163.7z M96.2,180.7c-1.9,0-3.4,1.5-3.4,3.4c0,1.9,1.5,3.4,3.4,3.4c1.9,0,3.4-1.5,3.4-3.4
	C99.6,182.2,98.1,180.7,96.2,180.7z M96.2,197.7c-1.9,0-3.4,1.5-3.4,3.4c0,1.9,1.5,3.4,3.4,3.4c1.9,0,3.4-1.5,3.4-3.4
	C99.6,199.2,98.1,197.7,96.2,197.7z M223.3,274c-3.4,0-6.2,2.8-6.2,6.2s2.8,6.2,6.2,6.2c3.5,0,6.3-2.8,6.2-6.2
	C229.5,276.8,226.7,274,223.3,274z M223.3,282.2c-1.1,0-2.1-0.9-2.1-2.1c0-1.1,0.9-2.1,2.1-2.1c1.2,0,2.2,1,2.1,2.1
	C225.4,281.2,224.4,282.2,223.3,282.2z M204.8,367.8c0,0.2,0,0.5,0.1,0.7c-2.8,3.2-5.9,5.2-8.4,6.4c-4.6,2.2-8.6,2.5-10,2
	c-3.8-1.3-29.1-7.9-36.2-9.8c1.4-8.3,5.8-34.2,9.5-56.6l20.2,3.2c0.4,0.1,0.8,0.1,1.2,0.1c5.1,0,8.3-3.7,9.7-10.9l1-6.3
	c0.1-0.5-0.1-1.1-0.4-1.5c-0.4-0.4-0.9-0.7-1.4-0.8l-27.1-3.6c1.4-8.8,2.3-15.1,2.3-16.3c0-4.8-1.2-27.1-1.5-31.1
	c-0.3-3.8-6.8-53-8.1-59.9c-1-5.5-5.8-19.6-7.7-24.9l31.2-9.6l-5.7,8.4c-0.6,0.9-0.4,2.1,0.4,2.8l8.1,6.5l-6.6,6.6
	c-0.5,0.6-0.7,1.4-0.4,2.2l36.4,87.7c0.3,0.7,0.9,1.1,1.6,1.3c-0.8,9.1-1.7,19.2-2,25.3c-1.2,23.7,1.1,41.3,4.3,54.4
	c-0.3,0.3-0.4,0.8-0.4,1.2c0,0.1-0.2,5.2-6.1,17.3c-0.4,0.7-0.8,1.5-1.2,2.1C206.1,364.9,204.8,366.2,204.8,367.8z M162.4,294.8
	l25.1,3.3l-0.7,4.1c-1.5,8-4.7,7.7-6.3,7.5l-20-3.2C161.1,302.4,161.8,298.4,162.4,294.8z M60.6,241.5c-0.8-0.4-2.7-1.5-5.1-3.1
	c0,0,0,0,0,0c-7.4-4.9-20.5-14.2-29.6-20.8c-0.7-9.1-1.7-20.5-2.6-32.2l35.1,1.5c0.6,0,1.1-0.2,1.4-0.5c0.4-0.5,0.6-1,0.6-1.6
	l-0.4-6.5c-0.1-1-0.9-1.8-1.9-1.9l-35.7-2.3c-1.9-24.2-3.6-46.7-3.6-48.9c0.1-1.3,3.6-6.1,6.4-9.9c5.9-8.2,13.3-18.4,14.1-26.4
	c3.1-32.8-0.7-49.6-2.3-54.9l22.3-11c-0.1,5.6,2.1,18.3,11.8,49c6.8,21.8,14.9,44.4,16.2,47.9l0.2,0.4c0,0,0,0,0,0
	c-1.1,3-2,5.2-2.5,6.4l-0.3,0.6c-0.1,0.3-0.1,0.5-0.1,0.8c-0.2,5.3-2,73,1.2,85.3c0.2,0.6,1.1,2,2.5,3.8
	C77.3,228.5,63.8,240.8,60.6,241.5z M23,181.3v-3.2l32.9,2.2l0.2,2.4L23,181.3L23,181.3z M89.6,114.5c-5.9-16.1-22.3-65-25.7-84.9
	h52.7C112.5,48.6,97.6,92.4,89.6,114.5z M117.6,21.8c0.1,0.8,0,2.1-0.2,3.6H63.3c-0.1-1.7-0.1-2.9,0.2-3.6H117.6z M89.7,212.2
	c-3.1-11.7-1.2-80.8-1.1-84.2c3.9-8.8,17.5-49,17.7-49.4c9.3-27.5,13.1-41.9,14.5-49.7c0.3-0.4,0.6-0.9,0.6-1.4
	c0-0.3-0.1-0.6-0.2-0.8c0.2-1.3,0.3-2.4,0.4-3.2l21,10.1c-1.6,5.3-5.4,22.5-2.3,55.4c0.8,8,8.2,18.2,14.1,26.4
	c2.8,3.8,6.3,8.6,6.4,9.9c0,1.4-0.7,10.9-1.7,23.9l-14.5,4.4c-0.1,0.1-0.2,0.1-0.2,0.1l-0.4,0.2c-0.1,0.1-0.2,0.1-0.3,0.2l-0.3,0.2
	c-0.1,0.1-0.2,0.1-0.3,0.2l-0.2,0.3l-0.2,0.2l-0.2,0.3c-0.3,0.4-5.5,8.5-10,20.3l-11.8,0.8c-1,0-1.8,0.9-1.9,1.9l-0.4,6.5
	c0,0.6,0.2,1.2,0.6,1.6c0.4,0.4,1,0.6,1.5,0.6l8.3-0.4c-0.5,2-1.1,4-1.5,6.1c-1.3,6.1-3.7,24.7-6.5,48c-0.5,0.3-1,0.6-1.4,0.8
	c-0.1,0-0.3,0-0.4,0C114.7,240.3,91.4,215.7,89.7,212.2z M130,182.4l-7.4,0.3l0.2-2.4l8.1-0.5C130.6,180.6,130.3,181.5,130,182.4z
	 M132.7,193.9c3-13.8,8.9-25.9,12.2-31.7c2.1,6.2,5.9,17.4,6.7,21.9c1.2,6.5,7.8,55.9,8.1,59.5c0,0.5,0.1,1.3,0.1,2.3
	c-0.8,2.5-9.1,29.3-11.7,42.9c-2.5,12.9-10,76.9-11.5,89.5c-4.3-0.5-14.8-1.9-25.1-4C113.4,356.2,128.7,212.5,132.7,193.9z
	 M216.6,236.5c-4.1-18-13.7-60.7-14.9-67.3c-1.1-5.7-2-16.7-2.3-24.4h34.3c-0.3,7.7-1.2,18.7-2.3,24.3
	C230.3,175.7,220.7,218.5,216.6,236.5z M212.5,364.4c2.6-5.3,4.1-9.4,5-12.4c1.4,4.6,3,8.5,4.4,11.9c0.1,0.3,0.3,0.5,0.4,0.8h-9.9
	C212.4,364.6,212.4,364.5,212.5,364.4z M243.8,210l12.8-0.7l-1,3.9l-13.5,0.8L243.8,210z M273.6,274.3c0-1.5,0.1-5,0.3-9.1
	c2.5,8.5,5.1,18.2,6.3,24.6c0,0.1,0.1,0.3,0.1,0.5l-4.7-2.2C274.3,280.4,273.6,275.2,273.6,274.3z M285.7,288.6
	c-2.7-14-11.4-41.9-11.8-43.1c-0.1-0.3-0.3-0.5-0.5-0.7c0-0.6,0.1-1,0.1-1.4c0.3-3.6,6.9-53,8.1-59.5c0.8-4.7,4.8-16.6,6.9-22.7
	c3.1,5.6,9.5,18,12.6,32.5c4,18.6,19.3,162.4,21.2,180.4c-10.3,2.1-20.8,3.5-25.1,4C295.7,365.5,288.2,301.4,285.7,288.6z
	 M306.9,192.4c-3.7-16.6-11.1-30.4-14-35.4l3.5-77.3c0-1.1-0.9-2-2-2.1c-1.1,0-2,0.9-2.1,2l-3.4,73.7c-0.1,0-0.2,0-0.2,0l-16.4-5
	L275,37.6h48.3v66.3l-13,110.8C308.9,204,307.7,196,306.9,192.4z M327.5,37.6h7.6v36c0,3.7-1.1,7.3-3.1,10.1l-4.5,6.4V37.6z
	 M327.5,33.4v-7.5h47.8l0.2,7.5H327.5z M323.3,33.4h-48.2l0.2-7.5h48V33.4z M327.5,97.3c0.1-0.1,0.3-0.2,0.4-0.4l7.5-10.7
	c2.5-3.6,3.9-8,3.9-12.5V37.6h36.3l6,247.3l-13.2,6.2l-9.6-211.5c0-1.2-1-2-2.1-2c-1.2,0-2.1,1-2,2.1l9.7,212.1l-15.6-5.2h0
	l-21.3-182.7V97.3z M366.5,296.6C366.5,296.6,366.5,296.6,366.5,296.6C366.5,296.6,366.5,296.6,366.5,296.6z"/>
</svg>
