<?xml version="1.0" encoding="utf-8"?>
<!-- Generator: Adobe Illustrator 24.2.0, SVG Export Plug-In . SVG Version: 6.00 Build 0)  -->
<svg version="1.1" id="レイヤー_1" xmlns="http://www.w3.org/2000/svg" xmlns:xlink="http://www.w3.org/1999/xlink" x="0px"
	 y="0px" viewBox="0 0 400 400" style="enable-background:new 0 0 400 400;" xml:space="preserve">
<style type="text/css">
	.st0{fill:#333333;}
</style>
<path class="st0" d="M374.9,333l-12-31.3c0.3-7-3.1-22.4-10.5-48.1c-3.8-13-11-32.2-18.7-52.8c-9.4-25.2-20.2-53.7-26.9-77.2
	C295,82.9,289,75.1,287.3,73.6c-0.1-0.1-0.4-0.3-0.5-0.3c-26.6-16.5-44.6-23.8-50.9-26c-0.7-1.9-1.6-3.7-2.7-5.7
	c-0.8-1.5-1.6-3-2.4-4.9c-3.5-7.8-5.4-12.1-10.8-13.2c-7.2-1.4-14.5-2-21.5-2c-13.7,0-22.8,2.6-24.9,3.8c-2.6,1.5-4.9,5.3-8.5,11.5
	c-0.9,1.5-2.5,4.4-3,4.9c-1,0.9-1.7,2-2.2,3c-12,3.6-51.8,24.7-55.7,29.5c-1.3,1.2-5.2,5-17,40.5c-7.7,23.1-13.9,44.5-19,61.8
	c-3.3,11.2-5.9,20.1-7.9,26.2c-1,3.1-2.3,6.7-3.7,10.8c-5.9,16.7-13.9,39.7-16.2,56.2c-2.5,17.3-2.4,27.5-2.4,30.3l-12.9,34.4
	c-0.4,1.2,0.1,2.5,1.3,3L67,354.4c1.2,0.5,2.5,0,3.1-1.2l14.9-32.7c5.9-7.8,19.5-37.4,29.6-60.3c-2.4,48.8-4.6,88.9-4.6,89.2
	l-0.1,1.6c-0.1,1.2,0.8,2.3,2,2.5l1.6,0.2c1.2,0.2,3.6,2.2,5.8,4.3c7.4,6.5,18.6,16.4,43.2,18.4c15.2,1.3,27.9,1.9,39.9,1.9
	c12.2,0,23.1-0.6,36.7-1.6c15.5-1.1,24.1-9.8,30.9-16.9c4-4.1,7.5-7.7,11.1-8.1l1.6-0.2c1.2-0.1,2.1-1.2,2.1-2.4l0-1.6
	c0-0.3-0.6-39.1-1.7-57c-0.6-9.8-1.5-29.8-2.1-44.7c16.6,37.9,38.3,72.8,38.4,73l16.9,33.7c0.3,0.6,0.8,1,1.4,1.2
	c0.6,0.2,1.3,0.1,1.8-0.1l34.3-17.6C374.8,335.4,375.3,334.1,374.9,333z M117.6,236.5c-0.3,0.7-28.6,67.3-37.6,79.6
	c-6.2-2.3-26.1-9.9-35.3-15.7c-0.1-1.6-0.3-11.7,2.3-29.7c2.3-15.9,10.2-38.5,16-55c1.4-4.1,2.7-7.7,3.7-10.8
	c2.1-6.2,4.7-15.2,8-26.5c5-17.2,11.3-38.6,18.9-61.5c8-24,12.1-32.9,14-36.1l-0.3-1.2c4.7,3.3,12,36.1,15.5,70.3
	c0,0.3,0.1,0.5,0.2,0.7c-1.3,25.2-2.9,55.6-4.5,84.9C118.1,235.7,117.8,236,117.6,236.5z M78.4,319l-12.7,27.9l-33.1-13.7l11.1-29.4
	C53.4,309.4,71.9,316.5,78.4,319z M121.7,236.1c2.6-48.3,5.3-99.5,6.5-125.9c0-0.9-0.6-1.6-1.5-1.7c-0.9,0-1.6,0.6-1.7,1.5
	c-0.3,6.4-0.7,14.2-1.2,23.1c-2.6-18.7-7.5-47.5-14-55.1c5.8-4.7,40.8-23.5,51.1-26.8c1,30.8,10.4,49.6,10.8,50.4
	c0.3,0.7,1,1.2,1.8,1.3c0.1,0,0.2,0,0.4,0c0.6,0,1.2-0.3,1.7-0.7c0.1-0.1,6.2-6.4,13.4-11.1c0,11.8-0.2,59.9-1.4,93.6
	c-1.3,36-0.4,168-0.3,186.9c-7.2-0.3-15.2-0.8-24.4-1.6c-22.4-1.9-32.6-10.9-39.4-16.8c-2.6-2.3-4.8-4.2-7.1-5.2
	c0.5-9.9,3.1-58,5.6-110.3C122.1,237,122,236.5,121.7,236.1z M203,83.2c6.4-5.5,18.9-19.5,21-45.6c0.2,0.6,0.5,1.1,0.8,1.8
	c0.9,2,1.8,3.7,2.6,5.3c1.2,2.2,2.1,4,2.5,5.7c0,0.1-0.1,0.3-0.1,0.4c-1,21.3-5.6,36.5-7.8,42.5C218.7,90.8,211.9,86.5,203,83.2z
	 M178.8,45.9c18.8-2.5,38.1,0.4,38.3,0.4c0.1,0,0.2,0,0.4,0c0.2,0,0.4,0,0.6-0.1c-4.3,21.4-16.3,32-20.1,34.9
	c-4.2-2.7-17.8-13.3-20.3-35.4C178,45.9,178.4,46,178.8,45.9z M218.8,42c-0.3-0.2-0.6-0.3-1-0.4c-0.8-0.1-20.1-3-39.6-0.4
	c-0.3,0-0.6,0.2-0.9,0.3c-0.2-3.4-0.1-7,0.4-10.8c3.6-1.3,19.2-4.9,41.2-0.7c0.3,0.1,0.5,0.1,0.8,0.3
	C219.6,34.5,219.3,38.4,218.8,42z M183.1,73.3c3.5,4.8,7.1,8.1,9.8,10.1c-7.3,3.4-14.5,9.6-18.2,13c-2.7-6.6-8.6-23.8-9-47.9
	c0,0,0,0,0,0c0.1-0.4,0.4-1.4,0.9-1.9c1-0.9,2.2-3,4.3-6.6c0.4-0.8,1-1.7,1.6-2.7C172.2,54.4,177.9,66.1,183.1,73.3z M192.4,184.8
	c1.4-38.6,1.4-95.9,1.4-96.4c0,0,0-0.1,0-0.1c1.5-0.7,2.9-1.3,4.3-1.8c0.1,0,0.1,0.1,0.2,0.1c2.5,0.8,4.8,1.7,7,2.7
	c0,7.4-0.1,59.5-1.4,95.4c-1.3,36.2-0.4,169.4-0.3,187.1c-3.7,0-7.5,0-11.5-0.1C191.9,353.5,191,220.8,192.4,184.8z M207.1,184.7
	c1.3-34.1,1.4-82.8,1.4-94c8.1,4,13.2,8.1,13.3,8.2c0.4,0.4,1,0.5,1.5,0.5c0.2,0,0.4,0,0.5-0.1c0.7-0.2,1.3-0.7,1.6-1.3
	c0.3-0.7,7.5-17.3,9.1-44.3c6.5,2.4,23.9,9.7,48.6,25c0.1,0.1,0.3,0.4,0.6,0.8c-4.8,7.8-10.2,34.6-12,56.4l-3.5-20.6
	c-0.1-0.9-1-1.4-1.8-1.3c-0.9,0.1-1.4,1-1.3,1.8l6.3,36.4c0,0.2-0.2,24.1,2.8,67.8c-0.4,0.4-0.7,1.1-0.7,1.7c0,0.5,2,51.3,3.2,69.2
	c1,15.5,1.5,46.6,1.7,54.7c-4.9,1.4-8.8,5.4-12.9,9.6c-6.4,6.5-13.6,14-26.7,14.9c-11.1,0.8-20.9,1.4-31.8,1.6
	C206.6,354,205.7,220.9,207.1,184.7z M277.2,219.8c-3-43.6-2.8-67.3-2.8-67.8l-0.3-1.9c0-0.1,0.1-0.3,0.1-0.4
	c0.1-26.3,7.7-61,11.6-68.1l-0.3,1.3c2.7,5.5,7.6,17.4,14.9,42.5c6.8,23.7,17.6,52.3,27.1,77.6c7.6,20.3,14.8,39.5,18.5,52.3
	c8.9,30.7,10.6,42.2,10.3,46.3c-12.3,5.8-27.5,11.6-31.7,13.2c-4.1-6.7-31.9-52.8-46.6-93.9C277.8,220.4,277.5,220.1,277.2,219.8z
	 M357.1,304.8l10.4,27.1l-27.2,14l-14.1-28.2C330.8,315.9,345.1,310.4,357.1,304.8z"/>
<path class="st0" d="M199,143.2c-1.4,0-2.6,1.2-2.6,2.8c0,1.5,1.2,2.8,2.6,2.8s2.6-1.2,2.6-2.8C201.6,144.4,200.4,143.2,199,143.2z"
	/>
<path class="st0" d="M198.3,185.9c1.4-0.3,2.3-1.7,2-3.2s-1.7-2.5-3.1-2.2c-1.4,0.3-2.3,1.7-2,3.2S196.9,186.2,198.3,185.9z"/>
<path class="st0" d="M198.4,223.6c1.4-0.3,2.3-1.7,2-3.2s-1.7-2.5-3.1-2.2c-1.4,0.3-2.3,1.7-2,3.2
	C195.6,222.9,197,223.9,198.4,223.6z"/>
<path class="st0" d="M197.9,255.8c-1.4,0.3-2.3,1.7-2,3.2s1.7,2.5,3.1,2.2c1.4-0.3,2.3-1.7,2-3.2
	C200.7,256.5,199.3,255.5,197.9,255.8z"/>
<path class="st0" d="M197.5,293.8c-1.4,0.3-2.3,1.7-2,3.2s1.7,2.5,3.1,2.2c1.4-0.3,2.3-1.7,2-3.2S198.9,293.5,197.5,293.8z"/>
<ellipse class="st0" cx="199.7" cy="107.1" rx="2.6" ry="2.8"/>
</svg>
